# xmcd
#
# Track frame offsets: 
#        150
#        49880
#        81770
#        115285
#        155856
#        197656
#
# Disc length: 3099 seconds
#
# Revision: 1
# Processed by: cddbd v1.5.2PL0 Copyright (c) Steve Scherf et al.
# Submitted via: ExactAudioCopy v1.0b1
#
DISCID=4e0c1906
DTITLE=Tony Malaby - TAMARINDO
DYEAR=2007
DGENRE=Jazz
TTITLE0=Buried Head
TTITLE1=Floral and herbacious
TTITLE2=La mariposa
TTITLE3=Tamarindo
TTITLE4=Mother's love
TTITLE5=Floating Head
EXTD=YEAR: 2007
EXTT0=
EXTT1=
EXTT2=
EXTT3=
EXTT4=
EXTT5=
PLAYORDER=
